<?xml version="1.0" standalone="no"?>
<!DOCTYPE svg PUBLIC "-//W3C//DTD SVG 20010904//EN"
 "http://www.w3.org/TR/2001/REC-SVG-20010904/DTD/svg10.dtd">
<svg version="1.0" xmlns="http://www.w3.org/2000/svg"
 width="512.000000pt" height="512.000000pt" viewBox="0 0 512.000000 512.000000"
 preserveAspectRatio="xMidYMid meet">
<metadata>
Created by potrace 1.14, written by Peter Selinger 2001-2017
</metadata>
<g transform="translate(0.000000,512.000000) scale(0.100000,-0.100000)"
fill="#000000" stroke="none">
<path d="M20 4818 c-22 -24 -25 -44 -10 -83 10 -28 33 -39 95 -49 22 -3 54 -8
70 -11 242 -45 250 -47 500 -85 263 -41 281 -43 375 -55 25 -4 56 -8 70 -10
32 -5 85 -12 185 -24 136 -17 168 -21 225 -26 30 -3 69 -8 85 -10 29 -4 191
-20 305 -30 30 -3 78 -7 105 -10 28 -2 79 -7 115 -10 36 -2 94 -7 130 -10 36
-3 101 -7 145 -10 44 -3 112 -7 150 -10 69 -5 172 -10 395 -20 63 -3 205 -7
314 -10 110 -3 200 -6 202 -7 1 -2 5 -28 8 -58 3 -30 8 -65 10 -77 4 -17 0
-23 -12 -24 -9 0 -174 -1 -367 -2 -319 -2 -352 -4 -377 -20 -51 -35 -57 -66
-57 -267 0 -101 5 -192 10 -202 5 -10 22 -24 36 -32 27 -13 27 -16 28 -110 1
-63 -2 -96 -9 -96 -6 0 -22 -9 -36 -19 -28 -22 -29 -26 -29 -311 l-1 -195 -32
-1 c-18 -1 -91 -4 -163 -8 -226 -13 -245 -14 -500 -21 -137 -4 -260 -8 -272
-10 -16 -1 -23 3 -23 14 0 32 -37 77 -71 87 -19 6 -126 10 -245 9 -237 -1
-252 -5 -275 -70 -7 -19 -20 -35 -29 -36 -31 -1 -248 3 -325 6 -278 11 -382
16 -480 22 -203 12 -224 11 -246 -16 -25 -31 -24 -64 4 -95 24 -27 40 -29 267
-41 52 -2 148 -7 213 -10 164 -8 319 -13 475 -15 128 -2 132 -3 133 -24 0 -11
2 -30 4 -41 2 -11 7 -39 10 -61 l5 -42 -359 0 c-395 -1 -403 -2 -440 -62 -16
-27 -17 -93 -17 -1094 1 -1064 1 -1065 22 -1093 35 -47 67 -56 201 -57 133 0
169 10 179 51 6 22 10 23 105 23 94 0 100 -1 108 -23 20 -53 -11 -51 746 -51
l703 0 35 27 c20 15 40 41 45 59 7 21 10 411 9 1083 -2 985 -3 1053 -20 1078
-37 58 -46 59 -438 59 l-359 0 4 26 c2 15 7 52 11 84 l6 56 132 2 c242 3 728
23 834 35 18 2 35 0 38 -5 3 -5 5 -186 5 -402 1 -352 3 -398 18 -429 36 -71
-26 -67 1055 -68 1086 0 1029 -4 1063 68 16 33 18 84 18 563 1 289 3 528 6
531 3 3 25 8 50 11 25 4 61 10 80 15 19 4 38 8 43 9 69 11 79 16 94 48 14 27
14 37 3 63 -16 41 -45 47 -139 32 -42 -7 -90 -15 -106 -17 l-31 -5 0 449 c0
494 2 478 -61 519 -25 16 -61 18 -388 19 l-360 1 1 34 c2 52 10 118 15 124 3
3 88 7 190 10 263 7 482 16 709 30 25 2 64 3 88 4 81 2 119 75 67 127 -25 25
-26 25 -153 19 -70 -3 -145 -8 -167 -10 -67 -6 -411 -17 -569 -19 -136 -1
-149 1 -152 17 -4 30 -33 67 -60 77 -34 13 -433 13 -471 0 -29 -11 -63 -55
-63 -84 0 -13 -21 -15 -172 -11 -219 5 -465 14 -543 20 -33 2 -109 7 -170 10
-60 3 -137 8 -170 10 -33 3 -85 7 -115 9 -266 21 -391 32 -470 41 -19 2 -62 7
-95 10 -33 3 -78 7 -100 10 -38 4 -181 20 -255 30 -19 2 -56 7 -82 10 -26 3
-64 7 -85 10 -21 3 -56 8 -78 11 -22 3 -51 7 -65 9 -14 3 -45 6 -70 9 -25 3
-74 9 -110 15 -36 6 -83 13 -105 16 -22 3 -65 10 -95 15 -30 5 -68 12 -85 14
-26 4 -175 29 -245 41 -14 3 -74 14 -134 25 -141 26 -170 26 -196 -2z"/>
</g>
</svg>
